<svg width="34" height="18" viewBox="0 0 34 18" fill="none" xmlns="http://www.w3.org/2000/svg">
<path d="M21.311 11.5645V11.5832C21.2515 12.4964 20.8674 13.3594 20.2267 14.0193C19.5859 14.6793 18.7299 15.0938 17.8101 15.1895C16.8902 15.2852 15.9658 15.0559 15.2004 14.5421C14.435 14.0284 13.8779 13.2634 13.6277 12.3824C13.5849 12.1814 13.5587 11.9773 13.5493 11.7721V11.2718V9.35579C13.5545 9.1634 13.5206 8.97194 13.4496 8.79276C13.3786 8.61358 13.2719 8.45034 13.1359 8.31273C13.0081 8.18142 12.8551 8.07679 12.6857 8.00504C12.5163 7.93329 12.3341 7.89587 12.1499 7.895H12.093C11.8992 7.88922 11.7063 7.92362 11.5267 7.99599C11.3471 8.06837 11.1847 8.1771 11.0501 8.31523C10.9145 8.45307 10.8082 8.61638 10.7374 8.79552C10.6667 8.97467 10.6329 9.16602 10.638 9.35829V11.7346C10.6238 12.1163 10.5421 12.4926 10.3966 12.8464C10.3966 12.8539 10.3966 12.8614 10.389 12.8689C10.0941 13.5536 9.6063 14.1399 8.98376 14.5577C8.36122 14.9755 7.63029 15.2073 6.87824 15.2252C6.1262 15.2431 5.38483 15.0465 4.74267 14.6589C4.10051 14.2712 3.58469 13.7089 3.25682 13.039C3.04317 12.4532 2.92746 11.8369 2.91425 11.2143V6.1353C2.91945 5.94291 2.88555 5.75145 2.81454 5.57227C2.74353 5.39309 2.63687 5.22985 2.50088 5.09224C2.36627 4.95411 2.20395 4.84538 2.02435 4.773C1.84474 4.70063 1.65182 4.66623 1.45798 4.67201C1.26414 4.66623 1.07122 4.70063 0.89161 4.773C0.712004 4.84538 0.549685 4.95411 0.41508 5.09224C0.279039 5.22988 0.172257 5.39309 0.101042 5.57224C0.0298266 5.7514 -0.00437815 5.94285 0.00044805 6.1353V11.1317C0.00044805 11.1843 0.00044805 11.2356 0.00044805 11.2868C0.00044805 11.2868 0.00044805 11.3594 0.00676865 11.4782V11.5245C0.00676865 11.5732 0.00676865 11.627 0.0194099 11.687C0.0816811 12.445 0.271822 13.1874 0.581944 13.8832C1.08774 15.0996 1.94711 16.1401 3.05117 16.8728C4.15522 17.6056 5.45427 17.9976 6.78372 17.9992H6.93668C7.93692 17.9766 8.91935 17.7327 9.81185 17.2854C10.7043 16.838 11.4842 16.1986 12.0943 15.4141C12.7102 16.2058 13.499 16.8496 14.4019 17.2973C15.3047 17.745 16.2981 17.9849 17.3078 17.9992C18.3176 18.0135 19.3175 17.8018 20.2329 17.3799C21.1483 16.9581 21.9555 16.3369 22.5941 15.5629" fill="#DB4880"/>
<path d="M32.5389 0.000824622C32.345 -0.00495321 32.1521 0.0294481 31.9725 0.101819C31.7929 0.174189 31.6306 0.282929 31.496 0.421051C31.3602 0.558729 31.2537 0.722008 31.1829 0.901191C31.1121 1.08037 31.0784 1.2718 31.0839 1.46411V6.17541C30.9332 6.03694 30.7754 5.90628 30.6111 5.78395C30.1485 5.4461 29.6371 5.1792 29.0941 4.99227C28.4791 4.7783 27.8309 4.67248 27.179 4.6796C26.1294 4.66993 25.1002 4.96614 24.2197 5.53131C23.3156 6.11546 22.5838 6.92578 22.0985 7.88008C21.5726 8.88062 21.3097 10.0367 21.3097 11.3482C21.3097 12.6439 21.5726 13.7916 22.0985 14.7913C22.5877 15.7523 23.3302 16.5647 24.2475 17.1426C25.1541 17.7112 26.2081 18.0071 27.2814 17.9943C27.8648 17.9996 28.4442 17.8982 28.9905 17.6954C29.4796 17.5155 29.9408 17.2688 30.3608 16.9625C30.6246 16.7714 30.8689 16.5552 31.0902 16.3171C31.0877 16.5052 31.1227 16.6919 31.1932 16.8666C31.2637 17.0413 31.3683 17.2005 31.501 17.3352C31.7802 17.604 32.1544 17.7543 32.5439 17.7543C32.9335 17.7543 33.3076 17.604 33.5868 17.3352C33.7225 17.1971 33.8289 17.0336 33.8997 16.8543C33.9704 16.6749 34.0042 16.4833 33.9989 16.2909V1.46411C34.0063 1.2697 33.9736 1.07583 33.9027 0.89435C33.8319 0.712865 33.7244 0.547567 33.5868 0.408545C33.4496 0.273278 33.2858 0.167302 33.1056 0.0971724C32.9253 0.0270425 32.7325 -0.00574965 32.5389 0.000824622V0.000824622ZM30.7565 13.3906C30.4792 13.9732 30.0476 14.4706 29.5075 14.8301C28.9531 15.188 28.3023 15.372 27.6404 15.3579C26.9863 15.3695 26.344 15.1856 25.7973 14.8301C25.2565 14.4711 24.8244 13.9735 24.5471 13.3906C24.2423 12.7534 24.0892 12.0556 24.0996 11.3507C24.0874 10.638 24.2405 9.93209 24.5471 9.28709C24.8244 8.7041 25.2565 8.20656 25.7973 7.84756C26.344 7.49206 26.9863 7.30811 27.6404 7.31977C28.3023 7.30564 28.9531 7.4896 29.5075 7.84756C30.0476 8.20701 30.4792 8.70446 30.7565 9.28709C31.0641 9.9318 31.2176 10.6379 31.2052 11.3507C31.2159 12.0557 31.0623 12.7537 30.7565 13.3906" fill="#814B88"/>
</svg>
