<svg width="107" height="48" viewBox="0 0 107 48" fill="none" xmlns="http://www.w3.org/2000/svg">
<path fill-rule="evenodd" clip-rule="evenodd" d="M16.041 22.1552C15.765 22.1456 15.4901 22.1933 15.2337 22.2952C14.9773 22.3972 14.7451 22.5512 14.5519 22.7473C14.3568 22.9446 14.2039 23.179 14.1021 23.4365C14.0004 23.694 13.952 23.9693 13.9599 24.2458V31.0159C13.7463 30.816 13.5207 30.6291 13.2844 30.4562C12.6197 29.9702 11.885 29.5868 11.1052 29.3189C10.2307 29.0183 9.3101 28.8717 8.38488 28.8856C6.8859 28.8722 5.41593 29.2965 4.1573 30.106C2.86906 30.9436 1.82457 32.1028 1.12827 33.4676C0.35227 35.0107 -0.0341584 36.7184 0.00236859 38.4432C-0.0317546 40.1573 0.354687 41.854 1.12827 43.3863C1.82707 44.7636 2.8859 45.9285 4.19362 46.7587C5.48696 47.5751 6.991 48.0003 8.52289 47.9827C9.35613 47.9903 10.1836 47.8446 10.9636 47.5531C11.6614 47.2936 12.3201 46.9401 12.9212 46.5023C13.298 46.2272 13.6471 45.9165 13.9635 45.5744C13.96 45.8446 14.0102 46.1129 14.1112 46.3638C14.2121 46.6148 14.3619 46.8434 14.5519 47.0367C14.9501 47.4231 15.4845 47.6394 16.041 47.6394C16.5975 47.6394 17.1319 47.4231 17.5301 47.0367C17.7238 46.8387 17.8757 46.604 17.9768 46.3467C18.0778 46.0893 18.126 45.8145 18.1185 45.5383V24.2566C18.1285 23.9785 18.0815 23.7013 17.9804 23.4418C17.8792 23.1824 17.726 22.9461 17.5301 22.7473C17.3351 22.5541 17.1024 22.4025 16.8464 22.3019C16.5903 22.2013 16.3162 22.1538 16.041 22.1624V22.1552ZM13.4986 41.3787C13.1018 42.214 12.4857 42.9275 11.7154 43.4441C10.9227 43.9583 9.99222 44.2226 9.04589 44.2023C8.11137 44.2191 7.19355 43.9548 6.41274 43.4441C5.64139 42.9286 5.02509 42.2148 4.62946 41.3787C4.19604 40.461 3.97985 39.4568 3.9975 38.4432C3.98094 37.4207 4.19957 36.408 4.63672 35.4824C5.03236 34.6463 5.64866 33.9325 6.42 33.417C7.20082 32.9063 8.11864 32.642 9.05316 32.6588C9.99948 32.6385 10.9299 32.9028 11.7226 33.417C12.493 33.9336 13.1091 34.6471 13.5059 35.4824C13.9431 36.408 14.1617 37.4207 14.1451 38.4432C14.1594 39.455 13.9408 40.4566 13.5059 41.3715L13.4986 41.3787ZM38.1377 28.8856C37.861 28.8778 37.5857 28.9274 37.3293 29.0312C37.0729 29.135 36.8411 29.2908 36.6486 29.4886C36.4545 29.6864 36.3024 29.921 36.2013 30.1784C36.1003 30.4358 36.0523 30.7108 36.0602 30.987V31.0303C35.845 30.8322 35.6195 30.6454 35.3847 30.4707C34.7195 29.9854 33.985 29.602 33.2055 29.3333C32.3317 29.0285 31.4112 28.877 30.4852 28.8856C28.9862 28.8717 27.5161 29.2961 26.2576 30.106C24.9743 30.944 23.9357 32.1035 23.2467 33.4676C22.4708 35.0107 22.0843 36.7184 22.1208 38.4432C22.0867 40.1573 22.4732 41.854 23.2467 43.3863C23.9433 44.7651 25.0026 45.9305 26.3121 46.7587C27.6054 47.5751 29.1095 48.0003 30.6414 47.9827C31.4648 47.9861 32.282 47.8405 33.053 47.5531C33.7505 47.2929 34.4091 46.9394 35.0106 46.5023C35.3863 46.2272 35.7342 45.9165 36.0493 45.5744C36.0439 46.1199 36.2553 46.6455 36.6377 47.0367C37.0359 47.4231 37.5703 47.6394 38.1268 47.6394C38.6833 47.6394 39.2177 47.4231 39.6159 47.0367C39.8096 46.8387 39.9615 46.604 40.0626 46.3467C40.1636 46.0893 40.2118 45.8145 40.2043 45.5383V30.9726C40.2153 30.6933 40.1688 30.4147 40.0676 30.1539C39.9665 29.8931 39.8127 29.6556 39.6159 29.4561C39.421 29.2667 39.1895 29.1186 38.9355 29.0205C38.6814 28.9225 38.4101 28.8766 38.1377 28.8856ZM35.5953 41.3859C35.1997 42.222 34.5834 42.9358 33.8121 43.4513C33.0205 43.965 32.0913 44.2293 31.1462 44.2095C30.2116 44.2268 29.2937 43.9624 28.5131 43.4513C27.7409 42.9368 27.1243 42.2227 26.7298 41.3859C26.2921 40.4719 26.0721 39.4699 26.0869 38.4576C26.0698 37.4347 26.2898 36.4216 26.7298 35.4968C27.1243 34.66 27.7409 33.946 28.5131 33.4315C29.2937 32.9203 30.2116 32.656 31.1462 32.6732C32.0913 32.6535 33.0205 32.9177 33.8121 33.4315C34.5814 33.943 35.1975 34.6516 35.5953 35.4824C36.0353 36.4072 36.2553 37.4203 36.2382 38.4432C36.253 39.4554 36.033 40.4574 35.5953 41.3715V41.3859ZM76.6544 43.1949C76.9889 42.9647 77.3926 42.8551 77.7984 42.8844V42.8988C78.0575 42.8836 78.3166 42.927 78.5563 43.0259C78.796 43.1247 79.01 43.2763 79.1822 43.4693C79.5103 43.8592 79.6834 44.355 79.6689 44.8631C79.6689 45.4264 79.3456 45.9487 78.6991 46.4301C77.9266 46.9568 77.0656 47.342 76.1568 47.5675C75.0443 47.8612 73.8974 48.0057 72.7464 47.9972C71.0756 48.0394 69.4279 47.6033 67.9995 46.7407C66.6653 45.9072 65.5912 44.7206 64.8978 43.3141C64.1567 41.8025 63.7835 40.139 63.8082 38.4576C63.771 36.7286 64.1706 35.0179 64.9704 33.482C65.71 32.0825 66.825 30.9139 68.1919 30.106C69.6243 29.2786 71.2571 28.8566 72.9135 28.8856C74.0752 28.8616 75.2348 28.9953 76.3602 29.2828C77.2021 29.488 77.985 29.8834 78.6483 30.4382C78.9048 30.6576 79.1104 30.9297 79.2509 31.2358C79.3913 31.5419 79.4633 31.8746 79.4618 32.2111C79.4608 32.6746 79.3149 33.1263 79.0442 33.5037C78.9121 33.6995 78.7313 33.8579 78.5194 33.9636C78.3074 34.0693 78.0715 34.1186 77.8347 34.1067C77.5212 34.1155 77.2089 34.0627 76.9159 33.9514C76.6825 33.8523 76.4657 33.7184 76.273 33.5543C76.0716 33.3809 75.851 33.2307 75.6156 33.1065C75.2852 32.9368 74.9275 32.8256 74.5587 32.7779C74.21 32.7116 73.8567 32.6718 73.5018 32.6588C72.4512 32.626 71.4125 32.8889 70.5055 33.4171C69.6973 33.9113 69.0444 34.6204 68.6205 35.4643C68.1656 36.3911 67.939 37.4122 67.9595 38.4432C67.9428 39.4651 68.1746 40.4758 68.635 41.3896C69.0643 42.2252 69.71 42.9319 70.5055 43.4368C71.331 43.9498 72.2888 44.2133 73.2621 44.1951C73.7605 44.2001 74.2585 44.165 74.7512 44.0904C75.1113 44.0398 75.4615 43.9351 75.79 43.7799C76.0952 43.6111 76.3845 43.4153 76.6544 43.1949ZM86.2174 23.2564C85.8953 23.0157 85.3287 22.8954 84.5176 22.8954C83.9458 22.857 83.3748 22.9823 82.8723 23.2564C82.5091 23.4984 82.3348 23.9533 82.3348 24.6177V25.2712C82.3348 25.9175 82.4983 26.3544 82.8215 26.6144C83.1447 26.8744 83.7004 26.9755 84.4849 26.9755C85.0736 27.0225 85.6633 26.897 86.181 26.6144C86.5261 26.3725 86.7004 25.9212 86.7004 25.2532V24.5996C86.7004 23.9569 86.5406 23.5164 86.2174 23.2564ZM83.7092 29.3598C83.9656 29.256 84.2409 29.2064 84.5176 29.2141H84.5249C84.8016 29.2059 85.0771 29.2553 85.3335 29.3592C85.5899 29.463 85.8217 29.619 86.0139 29.8171C86.2083 30.0149 86.3609 30.2494 86.4626 30.5068C86.5642 30.7641 86.613 31.0392 86.6059 31.3156V45.5383C86.6126 45.8147 86.5637 46.0896 86.462 46.3469C86.3603 46.6042 86.208 46.8387 86.0139 47.0367C85.6157 47.4231 85.0813 47.6394 84.5249 47.6394C83.9684 47.6394 83.434 47.4231 83.0358 47.0367C82.8422 46.8386 82.6904 46.6039 82.5894 46.3466C82.4883 46.0892 82.4401 45.8144 82.4474 45.5383V31.3156C82.4389 31.0399 82.4859 30.7654 82.5857 30.508C82.6855 30.2507 82.8361 30.0158 83.0285 29.8171C83.221 29.6194 83.4528 29.4636 83.7092 29.3598ZM106.494 32.7779C106.207 31.6635 105.571 30.6685 104.678 29.9363C103.787 29.2142 102.488 28.8531 100.781 28.8531C100.039 28.8458 99.3018 28.968 98.6022 29.2142C97.954 29.4404 97.3423 29.759 96.7863 30.1602C96.2805 30.5278 95.8165 30.9492 95.4025 31.4167C95.2609 31.5792 95.1374 31.7308 95.0393 31.8861V31.3156C95.0445 31.0382 94.9934 30.7625 94.8892 30.5051C94.785 30.2477 94.6298 30.0137 94.4328 29.8171C94.0346 29.4307 93.5001 29.2144 92.9437 29.2144C92.3872 29.2144 91.8528 29.4307 91.4546 29.8171C91.2595 30.0144 91.1065 30.2488 91.0048 30.5063C90.9031 30.7638 90.8547 31.0391 90.8626 31.3156V39.9091C90.8545 40.1857 90.9028 40.461 91.0045 40.7185C91.1062 40.9761 91.2593 41.2104 91.4546 41.4076C91.8528 41.794 92.3872 42.0103 92.9437 42.0103C93.5001 42.0103 94.0346 41.794 94.4328 41.4076C94.6269 41.2098 94.7789 40.9752 94.88 40.7178C94.9811 40.4604 95.0291 40.1854 95.0211 39.9091V38.2049C95.0211 37.4466 95.1882 35.2802 95.5224 34.6736C95.8618 34.0642 96.3647 33.5604 96.9751 33.2185C97.6909 32.8329 98.4968 32.6435 99.3105 32.6696C100.077 32.6228 100.838 32.8146 101.49 33.2185C101.989 33.5739 102.36 34.0805 102.547 34.6628C102.751 35.3258 102.85 36.0166 102.841 36.71V45.5274C102.833 45.8036 102.882 46.0784 102.983 46.3357C103.084 46.5931 103.236 46.8277 103.429 47.0259C103.828 47.4125 104.363 47.6289 104.92 47.6289C105.477 47.6289 106.012 47.4125 106.411 47.0259C106.604 46.8277 106.756 46.5931 106.857 46.3357C106.958 46.0784 107.007 45.8036 106.999 45.5274V36.7209C107.013 35.3898 106.843 34.0632 106.494 32.7779ZM53.8531 28.8567C55.5625 28.8567 56.8615 29.2178 57.7501 29.9399C58.6419 30.6714 59.2777 31.6649 59.5661 32.7779C59.9183 34.0627 60.0918 35.3893 60.0818 36.7209V45.5274C60.0894 45.8036 60.0412 46.0785 59.9401 46.3359C59.8391 46.5932 59.6872 46.8278 59.4935 47.0259C59.0952 47.4123 58.5608 47.6286 58.0044 47.6286C57.4479 47.6286 56.9135 47.4123 56.5153 47.0259C56.3202 46.8286 56.1672 46.5942 56.0655 46.3367C55.9638 46.0792 55.9154 45.804 55.9233 45.5274V36.71C55.9328 36.0166 55.8335 35.3258 55.6291 34.6628C55.4458 34.0771 55.0762 33.5664 54.5758 33.2076C53.9248 32.8031 53.1628 32.6112 52.3967 32.6588C51.5819 32.6327 50.7747 32.8221 50.0577 33.2076C49.4458 33.5526 48.9427 34.0602 48.6049 34.6736C48.2708 35.2802 48.1037 37.4466 48.1037 38.2049V39.9091C48.1116 40.1854 48.0637 40.4604 47.9626 40.7178C47.8615 40.9752 47.7094 41.2098 47.5153 41.4076C47.1171 41.794 46.5827 42.0103 46.0262 42.0103C45.4698 42.0103 44.9354 41.794 44.5371 41.4076C44.3431 41.2098 44.191 40.9752 44.0899 40.7178C43.9888 40.4604 43.9408 40.1854 43.9488 39.9091V31.3156C43.9393 31.0404 43.9852 30.7662 44.0837 30.5089C44.1823 30.2516 44.3315 30.0164 44.5226 29.8171C44.9208 29.4307 45.4552 29.2145 46.0117 29.2145C46.5682 29.2145 47.1026 29.4307 47.5008 29.8171C47.6945 30.0152 47.8464 30.2498 47.9475 30.5072C48.0485 30.7646 48.0967 31.0394 48.0892 31.3156V31.8897C48.2054 31.7381 48.3289 31.5828 48.4705 31.4203C48.885 30.9519 49.3503 30.5305 49.8579 30.1638C50.4138 29.7623 51.0255 29.4436 51.6739 29.2178C52.3735 28.9719 53.111 28.8497 53.8531 28.8567Z" fill="#814B88"/>
<path d="M76.716 5.75521C76.2646 4.69295 75.6221 3.72142 74.8201 2.88829C74.0385 2.07165 73.1079 1.41 72.078 0.938494C71.0479 0.460211 69.9244 0.213641 68.7875 0.216348C67.2882 0.214628 65.8158 0.612363 64.5236 1.36817C63.1563 2.15888 62.0275 3.29982 61.2548 4.67199C60.3873 6.26741 59.9588 8.06224 60.0127 9.87506V9.90395C59.9435 11.2249 59.4026 12.4779 58.4872 13.4378C57.5719 14.3977 56.3422 15.0016 55.0191 15.1408C53.696 15.2801 52.3664 14.9455 51.2692 14.1974C50.172 13.4493 49.3792 12.3366 49.0333 11.0594C48.9738 10.7713 48.9362 10.4793 48.9208 10.1856V9.46344V6.72289C48.9287 6.44667 48.8807 6.17168 48.7796 5.91426C48.6786 5.65685 48.5265 5.42226 48.3324 5.22444C48.15 5.03652 47.9318 4.8867 47.6904 4.78377C47.4491 4.68085 47.1894 4.62689 46.9268 4.62506H46.8542C46.5775 4.61729 46.3022 4.6669 46.0458 4.77072C45.7894 4.87453 45.5576 5.03028 45.3651 5.22805C45.171 5.42587 45.0189 5.66046 44.9178 5.91788C44.8168 6.17529 44.7688 6.45028 44.7767 6.7265V10.1423C44.7519 10.6914 44.6289 11.2319 44.4135 11.7382V11.7707C43.9923 12.751 43.2963 13.5901 42.4086 14.1881C41.521 14.786 40.479 15.1175 39.4071 15.143C38.3351 15.1685 37.2784 14.8869 36.363 14.3319C35.4475 13.7769 34.712 12.9718 34.2441 12.0126C33.935 11.1706 33.7669 10.2838 33.7465 9.38761V2.10115C33.7541 1.82498 33.7059 1.55011 33.6048 1.29275C33.5038 1.03539 33.3519 0.800759 33.1581 0.602696C32.7599 0.216296 32.2255 0 31.6691 0C31.1126 0 30.5782 0.216296 30.18 0.602696C29.9862 0.800759 29.8343 1.03539 29.7333 1.29275C29.6322 1.55011 29.5841 1.82498 29.5916 2.10115V9.27207C29.5916 9.3479 29.5916 9.42372 29.5916 9.49594C29.5916 9.49594 29.5916 9.60065 29.5916 9.76674C29.5916 9.79202 29.5916 9.81368 29.5916 9.83535C29.5916 9.85701 29.5916 9.98339 29.5916 10.07C29.6767 11.1554 29.9456 12.2187 30.387 13.215C31.1084 14.9686 32.3392 16.4685 33.9222 17.5233C35.5053 18.5781 37.3686 19.1398 39.2743 19.1366H39.4959C40.9247 19.1006 42.3273 18.7469 43.6006 18.1015C44.8739 17.456 45.9857 16.5352 46.8542 15.4067C47.7332 16.544 48.8597 17.4689 50.1492 18.112C51.4387 18.7551 52.8579 19.0998 54.3005 19.1203C55.743 19.1408 57.1715 18.8365 58.479 18.2303C59.7865 17.6241 60.9391 16.7316 61.8505 15.6197C62.5504 16.5268 63.4291 17.2824 64.4328 17.8403C65.7089 18.5038 67.1071 18.9032 68.5429 19.0143C69.9787 19.1254 71.4222 18.9459 72.7862 18.4867C73.688 18.2011 74.5316 17.7585 75.2777 17.1796C75.5563 16.9964 75.7876 16.7506 75.9529 16.462C76.1182 16.1735 76.2129 15.8503 76.2293 15.5186C76.2284 15.2938 76.1826 15.0713 76.0946 14.8642C76.0066 14.657 75.8782 14.4692 75.7167 14.3118C75.5553 14.1543 75.364 14.0302 75.154 13.9467C74.944 13.8631 74.7194 13.8219 74.4932 13.8252C74.0874 13.8354 73.6895 13.9392 73.331 14.1285C73.0804 14.2657 72.8044 14.4282 72.4957 14.6196C72.1191 14.8417 71.7115 15.0072 71.2862 15.1106C70.6273 15.2651 69.9509 15.3343 69.2741 15.3164C68.3733 15.3167 67.4872 15.0894 66.6991 14.6557C65.8774 14.199 65.1948 13.5304 64.7233 12.7203C64.4153 12.2031 64.2014 11.636 64.0914 11.0449H75.3504C75.8808 11.0567 76.3974 10.8757 76.8031 10.5358C77.0011 10.3756 77.1616 10.1743 77.2732 9.94606C77.3849 9.71781 77.4451 9.46808 77.4496 9.2143C77.4564 8.02611 77.2191 6.84906 76.7523 5.75521H76.716ZM73.084 7.65446H64.1495C64.1994 7.38985 64.2686 7.12919 64.3565 6.87454C64.5577 6.22738 64.907 5.63538 65.3771 5.145C65.8058 4.71867 66.3334 4.40371 66.9134 4.22787C67.533 4.04326 68.1769 3.95197 68.8238 3.95707C69.5151 3.95525 70.1974 4.11218 70.8177 4.41563C71.4258 4.70889 71.9615 5.13174 72.3867 5.65411C72.7984 6.15472 73.0423 6.77085 73.084 7.41615V7.65446Z" fill="#DB4880"/>
</svg>
